<?xml version="1.0" encoding="UTF-8"?>
<svg width="256" height="256" version="1.1" viewBox="0 0 256 256" xml:space="preserve" xmlns="http://www.w3.org/2000/svg"><path d="m9.8012 42.453c-2.8604 0.14941-9.3325 0.41057-7.5703 7.3262 1.7622 6.9156 14.645 20.76 26.152 26.023 11.508 5.2633 2.357-7.1211 35.148-2.7949 32.791 4.3262 55.976-11.38 93.408 26.053 37.433 37.433 21.727 60.617 26.053 93.408s-8.0582 23.641-2.7949 35.148c5.2633 11.508 19.108 24.39 26.023 26.152 6.9156 1.7622 7.1768-4.7098 7.3262-7.5703 0.14942-2.8604-6.1182-21.064-8.3379-33.936-2.2197-12.871-5.5899-14.422-0.18164-62.9s-6.386-58.202-23.287-75.104c-16.901-16.901-26.625-28.695-75.104-23.287-48.478 5.4083-50.029 2.038-62.9-0.18164-12.871-2.2197-31.075-8.4873-33.936-8.3379z"/><g stroke-linecap="round" stroke-linejoin="round"><path d="m14.102 29.015a5 5 0 0 0-6.2246 3.3535 5 5 0 0 0 3.3516 6.2246c11.556 3.4665 16.378 11.998 18.785 20.441s1.832 16.043 1.832 16.043a5.0005 5.0005 0 0 0-0.01563 0.40039l-3e-6 143.69a5.0005 5.0005 0 0 0 5 5h143.69a5.0005 5.0005 0 0 0 0.40039-0.0156s7.5993-0.57521 16.043 1.832c8.4436 2.4072 16.975 7.2296 20.441 18.785a5 5 0 0 0 6.2246 3.3516 5 5 0 0 0 3.3535-6.2246c-4.5924-15.309-16.899-22.57-27.277-25.529-10.378-2.9588-19.586-2.1836-19.586-2.1836l0.40038-0.0156h-138.69l4e-6 -138.69-0.01563 0.40039s0.77523-9.2075-2.1836-19.586c-2.9588-10.378-10.22-22.685-25.529-27.277z" color="#000000" style="-inkscape-stroke:none"/><path d="m22.031 188.17-0.5759 6.0643h29.759c-8.2641 1.3124-12.454 2.9415-15.351 5.8378l-4.7964 4.7964c-6.2112 6.2112-2.2325 8.7566 10.763 9.2987-0.07801 2.0261-0.11463 4.1557-0.11463 6.3957l-2e-6 13.173c2e-6 17.806 2.3084 24.034 9.4134 16.929l5.2936-5.2936c4.254-4.254 6.4719-9.8862 7.2865-17.774 0.27153 7.1679 2.1724 8.3154 4.1183 6.3695v-45.796zm10.241-2.5564h38.112l-1e-5 45.796 6.1554-6.1554 1e-5 -27.442 9.8194-9.8194 10.771 16.671 8.5985-8.5985-11.54-16.145c6.7236-6.7236 9.7478-13.29 10.404-28.515-2.0067-0.0946-4.2896-0.14087-6.8722-0.14087h-5.121c-19.026 0-28.286 2.3076-34.893 8.9148zm22.864-6.1554 19.097-19.097c2.67-2.67 6.9335-3.0314 15.105-3.0314h4.0244c2.1898 1e-5 3.8211 0.0881 5.0519 0.25412-0.38884 3.6599-1.2552 5.8293-2.7773 7.3514l-19.097 19.097v-4.5741zm-9.9202 25.41 7.1042-7.1042c2.0107-2.0107 4.7756-3.0447 9.394-3.4803 0.01535 0.1323 0.03583 0.23844 0.04972 0.37841l3e-6 23.172c-0.31678 4.8293-1.4483 9.4972-3.53 11.579l-7.1042 7.1042c-2.489 2.489-3.3947 0.8335-3.3947-9.2891l-2e-6 -12.195c-2e-6 -2.7391 0.07437-5.025 0.24307-7.0131-3.641-0.37212-4.6616-1.2522-2.7621-3.1516z" stroke-width="11.608"/><path d="m101.89 142.59 11.521 11.521 4.0562-4.0562-4.756-4.756 12.508-12.508 4.756 4.756 4.0576-4.0576-11.521-11.521-4.0576 4.0576 4.6886 4.6886-12.508 12.508-4.6886-4.6886zm29.764-29.764c-5.1861 5.1861-5.557 7.4996-2.7941 10.262l4.0526 4.0526c2.8801 2.8801 5.0764 2.3919 10.262-2.7941l8.9079-8.9079c2.349-2.349 3.0155-4.4898 2.6202-5.4341l1.5285 1.2854 3.4775-3.4775-6.6982-6.6982-11.745 11.745 1.8754 1.8754 7.8707-7.8707 1.4737 1.4737c0.70328 0.70328 0.32589 1.8513-1.9926 4.1697l-9.5487 9.5487c-1.9524 1.9524-2.6887 2.2528-4.2794 0.66201l-3.7175-3.7175c-1.1386-1.1386-0.90815-2.0058 1.0138-3.9277l10.341-10.341c1.6168-1.6168 2.7238-1.8526 3.5725-1.7971l1.1186-4.0659c-1.0939-0.1787-3.6123 0.22987-6.6935 3.311z" stroke-width="4.9942"/><path d="m161.2 29.869c-6.6783 6.4374-5.268 14.332 4.8392 24.439l2.7152 2.7152c14.873 14.873 29.16 13.103 44.544-5.2467l13.848-16.516c2.3158-2.7612 3.8345-2.546 6.8114 0.4309 3.0285 3.0285 3.4363 4.8078 1.66 8.2726l-24.264 47.336c4.7454 5.659 9.4679 11.617 14.418 17.194l17.625-57.441c2.494-8.1282 0.83372-12.936-5.777-19.546l-1.0869-1.0869c-5.4787-5.4787-9.6942-6.602-15.743-1.515l-16.16 13.591c-6.0521 5.0905-10.04 4.7737-14.932-0.11877-4.8925-4.8925-4.3734-8.0442 2.9762-11.837l27.648-14.271c-1.9346-2.2528-3.803-4.435-5.737-6.6291l-32.759 10.051c-9.7005 2.9765-16.619 6.3146-20.626 10.177zm57.952-21.63 5.603 5.603 3.2151-1.6462-5.0975-5.0975zm6.9026-2.1186 23.821 23.821 0.81897-2.6724-15.134-15.134c-1.2834-1.5054-1.6563-2.3606-1.0772-2.671l1.3438-0.71954c0.69013-0.37053 1.7026 0.23862 3.3063 1.8423l12.764 12.764 0.53862-1.7595-11.955-11.955c-1.5026-1.5026-1.9772-2.3255-1.4073-2.6309l0.93637-0.49994c0.57416-0.30831 1.904 0.90137 3.6916 2.6889l9.5943 9.5943 0.3867-1.2595-9.1302-9.1302c-4.114-4.1139-6.4375-5.9794-7.9826-5.5049l-0.51514 0.15882c-0.96662 0.29628-0.54255 1.5157 1.5993 3.9913-2.8001-2.4225-4.4945-3.1031-6.0035-2.6392l-0.6712 0.2044c-1.2092 0.37052-0.64581 1.8813 0.83416 3.9029l-3.182-3.182zm13.655-4.1888 14.355 14.355-4.6556-10.39zm-13.112 13.753 21.159 21.159 1.1339-3.6944-19.266-19.266z" stroke-width="10"/></g></svg>
